<?xml version="1.0" encoding="UTF-8"?>
<svg width="103px" height="27px" viewBox="0 0 103 27" version="1.1" xmlns="http://www.w3.org/2000/svg" xmlns:xlink="http://www.w3.org/1999/xlink">
    <!-- Generator: Sketch 44.1 (41455) - http://www.bohemiancoding.com/sketch -->
    <title>dmf-logo</title>
    <desc>Created with Sketch.</desc>
    <defs></defs>
    <g id="Symbols" stroke="none" stroke-width="1" fill="none" fill-rule="evenodd">
        <g id="Navigation" transform="translate(-27.000000, -16.000000)" fill="#272B3F">
            <g id="dmf-logo" transform="translate(27.000000, 16.000000)">
                <path d="M17.021612,23.4430447 C15.1426356,25.7604837 12.7751828,26.8075088 9.43099828,26.8075088 L0.0365583691,26.8075088 L0.0365583691,0.192579125 L9.43099828,0.192579125 C12.7751828,0.192579125 15.1426356,1.23894462 17.021612,3.55638364 C18.9755176,5.94879864 19.0508888,9.23850667 19.0508888,13.4998241 C19.0508888,17.7609217 18.9755176,21.0506297 17.021612,23.4430447 M13.5644811,5.61261607 C12.4372279,4.30394462 10.8962064,3.78109168 8.97987597,3.78109168 L4.09466996,3.78109168 L4.09466996,23.2189963 L8.97987597,23.2189963 C10.8962064,23.2189963 12.4372279,22.6954837 13.5644811,21.3870321 C14.8793888,19.9292882 14.9923352,17.4621171 14.9923352,13.4998241 C14.9923352,9.53731119 14.8793888,7.0701401 13.5644811,5.61261607" id="Fill-2"></path>
                <polygon id="Fill-4" points="44.6036858 26.8074429 44.6036858 9.01395255 38.4409262 21.9852348 35.4346966 21.9852348 29.1214155 9.01395255 29.1214155 26.8074429 25.0633039 26.8074429 25.0633039 0.192513164 29.1214155 0.192513164 36.9377009 16.7518683 44.6036858 0.192513164 48.6622395 0.192513164 48.6622395 26.8074429"></polygon>
                <polygon id="Fill-5" points="89.9239953 3.818008 89.9239953 11.9297042 101.047111 11.9297042 101.047111 15.5558147 89.9239953 15.5558147 89.9239953 26.8074868 85.8658837 26.8074868 85.8658837 0.192557138 102.963442 0.192557138 102.963442 3.818008"></polygon>
                <path d="M77.1525036,15.8400637 C74.999671,15.8400637 73.3322204,14.3324091 73.3322204,12.1605246 C73.3322204,11.1952915 73.9082247,10.4415741 73.9082247,10.320865 L73.8779436,10.320865 C73.483847,10.320865 72.1799908,12.1304023 70.8153513,15.0863464 C73.3322204,17.9818259 75.9699929,20.2137352 77.8801345,20.2137352 C79.1839908,20.2137352 80.1240315,18.9771814 80.1240315,17.9213614 C80.1240315,17.5295515 79.9721839,17.3483779 79.9721839,17.137082 C79.9721839,17.046935 80.0632483,16.8963234 80.1845938,16.8963234 C80.3362204,16.8963234 80.5484092,17.0770573 80.5484092,17.8006523 C80.5484092,21.571218 77.1827848,25.5522 73.4230637,25.5522 C71.7251109,25.5522 69.5722783,24.1650347 67.4194457,22.114299 C65.6001474,24.5572843 63.4172547,25.4919554 60.2941002,25.4919554 C56.4435358,25.4919554 53.4417268,22.8077718 53.4417268,19.4901401 C53.4417268,15.3275447 56.5646603,13.2163446 59.9000036,11.8588618 C59.0510273,10.0792269 58.5355852,8.48098555 58.5355852,7.27455405 C58.5355852,3.38371905 61.7798642,0.759560151 65.9641839,0.759560151 C69.3903706,0.759560151 72.0283642,2.20718999 72.0283642,4.68073734 C72.0283642,7.27455405 69.6936238,8.7221839 66.9647869,9.80812615 C67.995671,11.466832 69.2084629,13.1257578 70.481817,14.6639744 C71.9070187,11.4364898 73.6657547,8.39039874 76.9098127,8.39039874 C78.6988298,8.39039874 80.6392526,9.80812615 80.6392526,12.3115759 C80.6392526,14.1512355 79.1839908,15.8400637 77.1525036,15.8400637 M60.1121925,12.2511114 C59.1723727,12.7335081 58.5963685,13.3064916 58.5963685,14.0004041 C58.5963685,16.5337563 62.8410294,23.1395569 65.1454886,23.1395569 C65.7822762,23.1395569 66.4188427,22.626818 67.0556303,21.7519518 C64.3570745,19.0976706 61.7190809,15.4482538 60.1121925,12.2511114 M64.5392032,1.18171223 C64.1146045,1.18171223 63.5991624,1.51371725 63.5991624,2.08670075 C63.5991624,3.59479509 64.8727376,6.46015233 66.7220959,9.44577895 C67.5710723,9.02384674 68.0865144,8.57157235 68.0865144,7.96802679 C68.0865144,6.55073913 66.1763727,1.18171223 64.5392032,1.18171223" id="Fill-6"></path>
            </g>
        </g>
    </g>
</svg>