<?xml version="1.0" encoding="UTF-8" standalone="no"?>
<svg width="466px" height="123px" viewBox="0 0 466 123" version="1.1" xmlns="http://www.w3.org/2000/svg" xmlns:xlink="http://www.w3.org/1999/xlink">
    <!-- Generator: Sketch 44 (41411) - http://www.bohemiancoding.com/sketch -->
    <title>Group</title>
    <desc>Created with Sketch.</desc>
    <defs></defs>
    <g id="Page-1" stroke="none" stroke-width="1" fill="none" fill-rule="evenodd">
        <g id="01" transform="translate(-161.000000, -245.000000)" fill="#FEFEFE">
            <g id="Group" transform="translate(161.000000, 245.000000)">
                <path d="M77.0104,106.796092 C68.5094,117.353315 57.7984,122.123096 42.6684,122.123096 L0.1654,122.123096 L0.1654,0.877304902 L42.6684,0.877304902 C57.7984,0.877304902 68.5094,5.64408105 77.0104,16.2013033 C85.8504,27.1000827 86.1914,42.0865304 86.1914,61.4991987 C86.1914,80.9108654 85.8504,95.8973131 77.0104,106.796092 M61.3694,25.5685843 C56.2694,19.6068588 49.2974,17.2249732 40.6274,17.2249732 L18.5254,17.2249732 L18.5254,105.775427 L40.6274,105.775427 C49.2974,105.775427 56.2694,103.390537 61.3694,97.4298131 C67.3184,90.7889797 67.8294,79.5496448 67.8294,61.4991987 C67.8294,43.447751 67.3184,32.208416 61.3694,25.5685843" id="Fill-2"></path>
                <polygon id="Fill-4" points="201.7992 122.122795 201.7992 41.0635616 173.9172 100.154959 160.3162 100.154959 131.7532 41.0635616 131.7532 122.122795 113.3932 122.122795 113.3932 0.877004412 131.7532 0.877004412 167.1162 76.3140665 201.7992 0.877004412 220.1612 0.877004412 220.1612 122.122795"></polygon>
                <polygon id="Fill-5" points="406.8406 17.3931475 406.8406 54.3464302 457.1646 54.3464302 457.1646 70.8653779 406.8406 70.8653779 406.8406 122.122996 388.4806 122.122996 388.4806 0.877204739 465.8346 0.877204739 465.8346 17.3931475"></polygon>
                <path d="M349.0589,72.1602904 C339.3189,72.1602904 331.7749,65.2920861 331.7749,55.3979456 C331.7749,51.0007724 334.3809,47.5671711 334.3809,47.017274 L334.2439,47.017274 C332.4609,47.017274 326.5619,55.2607217 320.3879,68.7266891 C331.7749,81.917207 343.7089,92.0847936 352.3509,92.0847936 C358.2499,92.0847936 362.5029,86.4516041 362.5029,81.6417577 C362.5029,79.8568459 361.8159,79.0314995 361.8159,78.0689292 C361.8159,77.6582593 362.2279,76.97214 362.7769,76.97214 C363.4629,76.97214 364.4229,77.7954832 364.4229,81.0918606 C364.4229,98.2688819 349.1959,116.404467 332.1859,116.404467 C324.5039,116.404467 314.7639,110.085158 305.0239,100.742918 C296.7929,111.872073 286.9169,116.130019 272.7869,116.130019 C255.3659,116.130019 241.7849,103.902071 241.7849,88.7884162 C241.7849,69.8254815 255.9139,60.207792 271.0039,54.0237038 C267.1629,45.9164783 264.8309,38.6356008 264.8309,33.1396351 C264.8309,15.4147201 279.5089,3.46021846 298.4399,3.46021846 C313.9409,3.46021846 325.8759,10.0549766 325.8759,21.323359 C325.8759,33.1396351 315.3129,39.7343933 302.9669,44.6814636 C307.6309,52.2377904 313.1179,59.7951188 318.8789,66.8025502 C325.3269,52.0995649 333.2839,38.2229276 347.9609,38.2229276 C356.0549,38.2229276 364.8339,44.6814636 364.8339,56.0860681 C364.8339,64.4667397 358.2499,72.1602904 349.0589,72.1602904 M271.9639,55.8106188 C267.7119,58.0082038 265.1059,60.6184619 265.1059,63.7796188 C265.1059,75.3204456 284.3099,105.413537 294.7359,105.413537 C297.6169,105.413537 300.4969,103.077727 303.3779,99.092225 C291.1689,87.0004995 279.2339,70.3753786 271.9639,55.8106188 M291.9929,5.38335572 C290.0719,5.38335572 287.7399,6.89582304 287.7399,9.50608121 C287.7399,16.3762887 293.5019,29.4295828 301.8689,43.0307708 C305.7099,41.1086351 308.0419,39.048274 308.0419,36.2987887 C308.0419,29.842256 299.3999,5.38335572 291.9929,5.38335572" id="Fill-6"></path>
            </g>
        </g>
    </g>
</svg>