<?xml version="1.0" encoding="UTF-8"?>
<svg width="145px" height="145px" viewBox="0 0 145 145" version="1.1" xmlns="http://www.w3.org/2000/svg" xmlns:xlink="http://www.w3.org/1999/xlink">
    <!-- Generator: Sketch 44.1 (41455) - http://www.bohemiancoding.com/sketch -->
    <title>laser-cutter-icon</title>
    <desc>Created with Sketch.</desc>
    <defs></defs>
    <g id="sub-pages" stroke="none" stroke-width="1" fill="none" fill-rule="evenodd">
        <g id="screens/build-studio_desktop" transform="translate(-318.000000, -1741.000000)" fill-rule="nonzero">
            <g id="section_machines" transform="translate(0.000000, 1645.000000)">
                <g id="laser-cutter-icon" transform="translate(319.000000, 97.000000)">
                    <g id="Laster-fill" transform="translate(3.000000, 3.000000)" fill="#FF6868">
                        <rect id="Rectangle-path" x="84.6" y="42.3" width="3.13333333" height="23.5"></rect>
                        <rect id="Rectangle-path" x="0" y="131.6" width="141" height="9.4"></rect>
                        <polygon id="Shape" points="141 6.26666667 100.266667 6.26666667 100.266667 0 72.0666667 0 72.0666667 6.26666667 0 6.26666667 0 15.6666667 72.0666667 15.6666667 72.0666667 21.9333333 81.4666667 37.6 90.8666667 37.6 100.266667 21.9333333 100.266667 15.6666667 141 15.6666667"></polygon>
                        <circle id="Oval" cx="86.1666667" cy="95.5666667" r="1.56666667"></circle>
                        <path d="M87.7333333,65.8 L87.7333333,91.1549333 C89.5553667,91.8019667 90.8666667,93.5237333 90.8666667,95.5666667 C90.8666667,98.1626333 88.7626333,100.266667 86.1666667,100.266667 C83.5707,100.266667 81.4666667,98.1626333 81.4666667,95.5666667 C81.4666667,93.5221667 82.7779667,91.8019667 84.6,91.1549333 L84.6,65.8 L31.3333333,65.8 L31.3333333,126.9 L109.666667,126.9 L109.666667,65.8 L87.7333333,65.8 Z M76.845,86.2465667 C77.4575667,85.634 78.4477,85.634 79.0602667,86.2465667 L81.2755333,88.4618333 C81.8881,89.0744 81.8881,90.0645333 81.2755333,90.6771 C80.9700333,90.9826 80.5689667,91.1361333 80.1679,91.1361333 C79.7668333,91.1361333 79.3657667,90.9826 79.0602667,90.6771 L76.845,88.4618333 C76.2324333,87.8492667 76.2324333,86.8575667 76.845,86.2465667 Z M81.2755333,102.673067 L79.0602667,104.888333 C78.7547667,105.193833 78.3537,105.347367 77.9526333,105.347367 C77.5515667,105.347367 77.1505,105.193833 76.845,104.888333 C76.2324333,104.275767 76.2324333,103.285633 76.845,102.673067 L79.0602667,100.4578 C79.6728333,99.8452333 80.6629667,99.8452333 81.2755333,100.4578 C81.8881,101.070367 81.8881,102.062067 81.2755333,102.673067 Z M95.4867667,104.888333 C95.1812667,105.193833 94.7802,105.347367 94.3791333,105.347367 C93.9780667,105.347367 93.577,105.193833 93.2715,104.888333 L91.0562333,102.6715 C90.4436667,102.058933 90.4436667,101.067233 91.0562333,100.456233 C91.6688,99.8436667 92.6589333,99.8436667 93.2715,100.456233 L95.4867667,102.673067 C96.0993333,103.285633 96.0993333,104.2789 95.4867667,104.888333 Z M95.4867667,88.4618333 L93.2715,90.6771 C92.966,90.9826 92.5649333,91.1361333 92.1638667,91.1361333 C91.7628,91.1361333 91.3617333,90.9826 91.0562333,90.6771 C90.4436667,90.0645333 90.4436667,89.0744 91.0562333,88.4618333 L93.2715,86.2465667 C93.8840667,85.634 94.8742,85.634 95.4867667,86.2465667 C96.0993333,86.8591333 96.0993333,87.8492667 95.4867667,88.4618333 Z" id="Shape"></path>
                    </g>
                    <g id="Laser-outline" stroke="#272B3F">
                        <rect id="Rectangle-path" x="84" y="42" width="3.13333333" height="23.5"></rect>
                        <rect id="Rectangle-path" x="0" y="132" width="141" height="9.4"></rect>
                        <polygon id="Shape" points="141 6.26666667 100.266667 6.26666667 100.266667 0 72.0666667 0 72.0666667 6.26666667 0 6.26666667 0 15.6666667 72.0666667 15.6666667 72.0666667 21.9333333 81.4666667 37.6 90.8666667 37.6 100.266667 21.9333333 100.266667 15.6666667 141 15.6666667"></polygon>
                        <circle id="Oval" cx="85.5666667" cy="95.5666667" r="1.56666667"></circle>
                        <path d="M87.4,66 L87.4,91.3549333 C89.2220333,92.0019667 90.5333333,93.7237333 90.5333333,95.7666667 C90.5333333,98.3626333 88.4293,100.466667 85.8333333,100.466667 C83.2373667,100.466667 81.1333333,98.3626333 81.1333333,95.7666667 C81.1333333,93.7221667 82.4446333,92.0019667 84.2666667,91.3549333 L84.2666667,66 L31,66 L31,127.1 L109.333333,127.1 L109.333333,66 L87.4,66 Z M76.5116667,86.4465667 C77.1242333,85.834 78.1143667,85.834 78.7269333,86.4465667 L80.9422,88.6618333 C81.5547667,89.2744 81.5547667,90.2645333 80.9422,90.8771 C80.6367,91.1826 80.2356333,91.3361333 79.8345667,91.3361333 C79.4335,91.3361333 79.0324333,91.1826 78.7269333,90.8771 L76.5116667,88.6618333 C75.8991,88.0492667 75.8991,87.0575667 76.5116667,86.4465667 Z M80.9422,102.873067 L78.7269333,105.088333 C78.4214333,105.393833 78.0203667,105.547367 77.6193,105.547367 C77.2182333,105.547367 76.8171667,105.393833 76.5116667,105.088333 C75.8991,104.475767 75.8991,103.485633 76.5116667,102.873067 L78.7269333,100.6578 C79.3395,100.045233 80.3296333,100.045233 80.9422,100.6578 C81.5547667,101.270367 81.5547667,102.262067 80.9422,102.873067 Z M95.1534333,105.088333 C94.8479333,105.393833 94.4468667,105.547367 94.0458,105.547367 C93.6447333,105.547367 93.2436667,105.393833 92.9381667,105.088333 L90.7229,102.8715 C90.1103333,102.258933 90.1103333,101.267233 90.7229,100.656233 C91.3354667,100.043667 92.3256,100.043667 92.9381667,100.656233 L95.1534333,102.873067 C95.766,103.485633 95.766,104.4789 95.1534333,105.088333 Z M95.1534333,88.6618333 L92.9381667,90.8771 C92.6326667,91.1826 92.2316,91.3361333 91.8305333,91.3361333 C91.4294667,91.3361333 91.0284,91.1826 90.7229,90.8771 C90.1103333,90.2645333 90.1103333,89.2744 90.7229,88.6618333 L92.9381667,86.4465667 C93.5507333,85.834 94.5408667,85.834 95.1534333,86.4465667 C95.766,87.0591333 95.766,88.0492667 95.1534333,88.6618333 Z" id="Shape"></path>
                    </g>
                </g>
            </g>
        </g>
    </g>
</svg>